<?xml version="1.0" encoding="UTF-8"?>
<!DOCTYPE svg PUBLIC "-//W3C//DTD SVG 1.1//EN" "http://www.w3.org/Graphics/SVG/1.1/DTD/svg11.dtd">
<!-- Creator: CorelDRAW X7 -->
<svg xmlns="http://www.w3.org/2000/svg" xml:space="preserve" width="150.957mm" height="92.594mm" version="1.1" style="shape-rendering:geometricPrecision; text-rendering:geometricPrecision; image-rendering:optimizeQuality; fill-rule:evenodd; clip-rule:evenodd"
viewBox="0 0 15096 9259"
 xmlns:xlink="http://www.w3.org/1999/xlink">
 <defs>
  <style type="text/css">
   <![CDATA[
    .fil1 {fill:pink}
    .fil0 {fill:#373435}
    .fil2 {fill:purple;fill-rule:nonzero}
    .fil3 {fill:white;fill-rule:nonzero}
   ]]>
  </style>
 </defs>
 <rect class="fil0" x="-7286" y="-6105" width="29669" height="20990"/>
 <g id="Layer_x0020_1">
  <metadata id="CorelCorpID_0Corel-Layer"/>
  <g id="_2251169912544">
   <rect class="fil1" x="10" y="10" width="15076" height="9239"/>
   <g>
    <path class="fil2" d="M11023 6892c0,-301 -237,-546 -529,-546 -292,0 -529,245 -529,546 0,300 237,546 529,546 292,0 529,-246 529,-546zm-859 8c0,-186 152,-339 343,-339 186,0 343,153 343,339 0,191 -157,339 -343,339 -191,0 -343,-148 -343,-339zm3357 -1871c4,0 9,13 9,21 0,42 -26,153 -102,318 -385,834 -775,1617 -1376,2040 -461,326 -940,512 -1465,512 -635,0 -1291,-152 -1888,-431 17,-77 136,-288 178,-356 229,-356 457,-614 686,-771 229,-160 546,-317 965,-474 212,-80 466,-156 762,-220 296,-63 555,-106 783,-156 445,-98 868,-238 1296,-420l152 -63zm411 275c152,-394 228,-711 228,-957 -4,0 -127,81 -372,233 -305,191 -457,275 -669,364 -419,174 -732,280 -1012,360 -283,81 -537,123 -838,182 -614,119 -1063,254 -1723,656 -622,381 -1016,877 -1304,1516 627,372 1380,605 2083,605 732,0 1367,-139 1926,-508 690,-453 1304,-1477 1681,-2451zm-9673 1596c0,-186 152,-339 342,-339 191,0 343,153 343,339 0,191 -152,339 -343,339 -190,0 -342,-148 -342,-339zm-187 -8c0,300 237,546 529,546 293,0 530,-246 530,-546 0,-301 -237,-546 -530,-546 -292,0 -529,245 -529,546zm-2912 -1588c381,974 995,1998 1685,2451 558,369 1193,508 1926,508 703,0 1452,-233 2083,-605 -288,-639 -682,-1135 -1304,-1516 -661,-402 -1109,-537 -1723,-656 -301,-59 -555,-101 -838,-182 -280,-80 -593,-186 -1012,-360 -216,-89 -364,-173 -669,-364 -246,-152 -368,-233 -373,-233 0,246 77,563 225,957zm415 -275l152 63c428,182 847,322 1295,420 229,50 487,93 784,156 292,64 550,140 762,220 414,157 736,314 965,474 228,157 457,415 686,771 42,68 160,279 177,356 -596,279 -1253,431 -1888,431 -529,0 -1003,-186 -1469,-512 -597,-423 -986,-1206 -1371,-2040 -81,-165 -102,-276 -102,-318 0,-8 4,-21 9,-21zm12873 -1918c-51,4 -423,220 -626,343 -199,127 -1266,504 -1507,559 -699,157 -1431,279 -2041,495 -914,330 -1879,1046 -2066,2075 -8,63 -17,127 -17,190 9,0 47,-63 115,-190 228,-441 558,-767 990,-1046 758,-491 1414,-635 2316,-919 190,-59 347,-97 487,-144 309,-101 605,-224 901,-330 398,-135 872,-402 1177,-686 98,-89 191,-199 271,-347zm-13800 0c80,148 173,258 270,347 305,284 779,551 1177,686 297,106 593,229 902,330 140,47 296,85 487,144 902,284 1554,428 2316,919 431,279 762,605 990,1046 68,127 106,190 114,190 0,-63 -8,-127 -17,-190 -190,-1029 -1151,-1745 -2070,-2075 -605,-216 -1337,-338 -2036,-495 -241,-55 -1308,-432 -1507,-559 -203,-123 -580,-339 -626,-343zm6544 3196c0,191 153,348 343,348 191,0 343,-157 343,-348 0,-190 -152,-342 -343,-342 -190,0 -343,152 -343,342zm360 -1913c-89,-4 -847,-572 -847,-1676 0,-479 238,-906 563,-1381 140,-203 238,-313 284,-342 47,29 144,139 284,342 321,475 559,902 559,1381 0,1104 -750,1672 -843,1676zm9 -3878c-77,26 -199,165 -373,419 -356,529 -677,1084 -677,1783 0,626 385,1312 796,1727 93,89 199,148 237,152 46,-4 161,-63 254,-152 410,-415 796,-1101 796,-1727 0,-699 -322,-1254 -678,-1783 -173,-254 -283,-393 -355,-419zm-271 2705c0,-144 118,-258 262,-258 140,0 258,114 258,258 0,144 -118,259 -258,259 -144,0 -262,-115 -262,-259zm681 5c0,-238 -186,-432 -419,-432 -237,0 -423,194 -423,432 0,241 190,436 423,436 233,0 419,-195 419,-436z"/>
    <path class="fil3" d="M7552 4940c-665,0 -1147,-419 -1414,-991 0,-4 -114,-292 -131,-292 -21,0 -34,326 -34,326 13,826 754,1529 1583,1529 830,0 1562,-703 1575,-1529 0,0 -17,-326 -34,-326 -17,0 -131,288 -131,292 -271,572 -745,991 -1414,991zm-8 -3382c-26,0 -51,17 -81,59 -258,364 -487,868 -487,1287 0,72 13,156 22,169 97,-216 317,-402 541,-402 225,0 453,186 551,402 8,-13 21,-97 21,-169 0,-419 -224,-923 -487,-1287 -25,-42 -51,-59 -80,-59zm427 2065c-106,9 -275,178 -419,178 -144,0 -313,-169 -419,-178 55,132 271,500 415,500 152,0 368,-368 423,-500zm6350 127c0,0 -55,39 -161,106 -194,123 -393,225 -580,318 -262,135 -546,216 -842,326 -1406,516 -3425,711 -4301,2091 -110,174 -182,322 -182,491 68,-80 148,-245 228,-355 830,-1139 2341,-1414 4259,-2062 335,-110 661,-254 927,-398 178,-93 343,-203 508,-334 93,-72 144,-161 144,-183zm-13546 0c0,22 50,111 143,183 166,131 331,241 508,334 267,144 593,288 928,398 1917,648 3429,923 4258,2062 77,110 161,275 229,355 0,-169 -72,-317 -182,-491 -876,-1380 -2896,-1575 -4301,-2091 -297,-110 -580,-191 -843,-326 -186,-93 -385,-195 -580,-318 -105,-67 -160,-106 -160,-106zm8216 3624c0,119 699,229 978,229 64,0 259,-9 276,-34 -191,-114 -339,-263 -403,-432 -29,-76 -42,-156 -42,-237 0,-102 59,-284 106,-385 -233,-4 -915,715 -915,859zm1596 -1168c369,89 602,338 602,686 0,148 -72,347 -166,470 538,-13 2020,-1436 2028,-1859 -821,411 -1697,292 -2464,703zm-6079 0c-766,-411 -1642,-292 -2463,-703 8,423 1490,1846 2027,1859 -93,-123 -165,-322 -165,-470 0,-348 233,-597 601,-686zm1605 1168c0,-144 -682,-863 -915,-859 47,101 106,283 106,385 0,81 -12,161 -42,237 -64,169 -212,318 -402,432 17,25 211,34 275,34 279,0 978,-110 978,-229zm1592 -686c-34,0 -51,22 -51,55 0,30 17,51 51,51 29,0 50,-21 50,-51 0,-33 -21,-55 -50,-55zm0 -846c-34,0 -51,17 -51,51 0,33 17,50 51,50 29,0 50,-17 50,-50 0,-34 -21,-51 -50,-51zm279 419c-30,0 -51,21 -51,55 0,30 21,51 51,51 34,0 51,-21 51,-51 0,-34 -17,-55 -51,-55zm-622 -419c-34,0 -55,17 -55,51 0,33 21,50 55,50 29,0 46,-17 46,-50 0,-34 -17,-51 -46,-51zm588 597c-34,0 -51,17 -51,50 0,34 17,55 51,55 30,0 51,-21 51,-55 0,-33 -21,-50 -51,-50zm-419 -631c-34,0 -51,17 -51,51 0,34 17,55 51,55 30,0 51,-21 51,-55 0,-34 -21,-51 -51,-51zm-318 775c-33,0 -55,17 -55,50 0,34 22,55 55,55 30,0 47,-21 47,-55 0,-33 -17,-50 -47,-50zm140 105c-29,0 -51,17 -51,51 0,34 22,51 51,51 34,0 51,-17 51,-51 0,-34 -17,-51 -51,-51zm178 30c-34,0 -51,17 -51,51 0,34 17,51 51,51 30,0 51,-17 51,-51 0,-34 -21,-51 -51,-51zm-419 -284c-34,0 -51,17 -51,51 0,34 17,51 51,51 29,0 51,-17 51,-51 0,-34 -22,-51 -51,-51zm-34 -173c-34,0 -55,21 -55,55 0,30 21,51 55,51 30,0 47,-21 47,-51 0,-34 -17,-55 -47,-55zm775 -322c-34,0 -51,21 -51,51 0,34 17,55 51,55 29,0 50,-21 50,-55 0,-30 -21,-51 -50,-51zm-640 0c-33,0 -55,21 -55,51 0,34 22,55 55,55 30,0 47,-21 47,-55 0,-30 -17,-51 -47,-51zm640 644c-34,0 -51,21 -51,55 0,33 17,50 51,50 29,0 50,-17 50,-50 0,-34 -21,-55 -50,-55zm-741 -496c-34,0 -51,17 -51,51 0,34 17,51 51,51 29,0 51,-17 51,-51 0,-34 -22,-51 -51,-51zm838 0c-34,0 -51,17 -51,51 0,34 17,51 51,51 30,0 51,-17 51,-51 0,-34 -21,-51 -51,-51zm-626 1308c0,119 93,216 211,216 123,0 220,-97 220,-216 0,-122 -97,-220 -220,-220 -118,0 -211,98 -211,220z"/>
   </g>
  </g>
 </g>
</svg>
